<svg width="53" height="45" viewBox="0 0 53 45" fill="none" xmlns="http://www.w3.org/2000/svg">
<path d="M43.3684 0.00801952L32.0158 16.1674L34.7882 20.2493L49.3594 0.00801952H52.2194L36.3736 22.5429L52.2194 44.9494H49.3594L34.7802 24.7082C34.4137 25.462 31.9679 28.2367 32.1273 28.8462L43.3604 44.9494H40.5003L30.5817 31.1478C30.1595 30.1534 31.6094 29.568 31.7369 28.6056H11.6288L14.5208 24.5558L34.597 24.5237C34.9236 24.4596 36.1744 22.7273 36.1585 22.3825C35.784 21.8692 35.1786 20.554 34.589 20.4418L14.5128 20.4017C14.2977 20.3375 12.0112 17.2259 11.7961 16.8169C11.6766 16.5924 11.5491 16.4641 11.6129 16.1593H31.721C31.49 15.5178 30.271 14.5715 30.518 13.9379L40.4844 0H43.3445L43.3684 0.00801952Z" fill="#6C1CA1"/>
<path d="M34.8758 0.00802612L27.7615 10.0485L28.9724 12.2699H8.58551L5.81306 8.36437L5.99631 7.99547H25.5547C25.6025 7.99547 25.722 8.16388 25.8973 8.14784L31.7369 0.00802612H34.8758Z" fill="#6C1CA1"/>
<path d="M28.9724 32.6956L27.7615 34.7566L34.8758 44.9575H32.0158L26.208 36.7856H5.72545L8.58551 32.6956H28.9724Z" fill="#6C1CA1"/>
<path d="M23.2523 4.09799H2.86538C2.05277 3.03139 1.14456 1.93272 0.41162 0.809985C0.244318 0.553361 -0.0424927 0.352872 0.00530783 0.0160522H20.3923L23.2523 4.10601V4.09799Z" fill="#6C1CA1"/>
<path d="M23.2523 40.8675L20.209 44.9575H0.00530243L2.86538 40.8675H23.2523Z" fill="#6C1CA1"/>
</svg>
